<?xml version="1.0" encoding="UTF-8"?>
<svg width="1185px" height="1184px" viewBox="0 0 1185 1184" version="1.1" xmlns="http://www.w3.org/2000/svg" xmlns:xlink="http://www.w3.org/1999/xlink">
    <title>Artboard</title>
    <g id="Artboard" stroke="none" stroke-width="1" fill="none" fill-rule="evenodd">
        <rect id="Rectangle" fill="#FDFDFD" x="-69.058277" y="-69" width="1323.11655" height="1322"></rect>
        <g id="Group" transform="translate(164, 214)" fill-rule="nonzero">
            <rect id="Rectangle" fill="#F4F4ED" x="55" y="0" width="744" height="129"></rect>
            <polygon id="Path" fill="#F4F4ED" points="564 194 556.370504 323 459 323 459 194"></polygon>
            <rect id="Rectangle" fill="#F4F4ED" x="459" y="388" width="340" height="129"></rect>
            <rect id="Rectangle" fill="#F4F4ED" x="55" y="194" width="340" height="323"></rect>
            <polygon id="Path" fill="#F4F4ED" points="798 581 798 710 664 710 670.929736 581"></polygon>
            <polygon id="Path" fill="#F4ED00" points="671 581 664.050644 710 55 710 55 581"></polygon>
            <polygon id="Path" fill="#FFF800" points="54.9372333 581.639119 54.9372333 710.538795 664.234224 710.538795 661.816079 757 0 757 0 548 673 548 671.186391 581.639119"></polygon>
            <polygon id="Path" fill="#F4ED00" points="799 194 799 323 557 323 564.626209 194"></polygon>
            <polygon id="Path" fill="#FFF800" points="857 153 857 362 554 362 556.345318 323.005774 798.820974 323.005774 798.820974 194.030675 563.986517 194.030675 566.407491 153"></polygon>
        </g>
        <path d="M1003.55733,942.78716 C989.082202,942.78716 983.031125,940.770412 966.894918,935.313329 C966.894918,935.313329 960.250598,933.059316 960.250598,933.059316 C935.92764,924.873692 918.960893,906.841591 902.468741,888.097697 C877.433892,859.62596 859.399308,825.578507 838.517158,794.140963 C819.296089,765.313329 799.837722,736.485694 780.02341,708.132589 C764.124501,685.473831 748.700186,660.442428 729.004522,640.749477 C729.004522,640.749477 728.648576,640.39358 728.648576,640.39358 C706.461293,618.209351 686.884277,601.244941 669.680234,589.02582 C697.088055,578.230286 727.462091,561.977669 754.395318,538.013957 C796.634211,499.933008 821.906358,449.75157 823.804735,400.281926 C825.940409,344.524773 799.24448,288.293091 752.49694,249.974878 C717.851556,221.621773 672.290502,201.098395 612.966214,187.218423 C582.47353,179.863224 518.640596,174.406141 423.128491,170.728542 L328.684224,168.474529 C280.038308,168 182.627827,168 181.559989,168 C171.830806,168 164,175.829728 164,185.557572 L164,225.062107 C164,234.552687 171.47486,242.263782 180.848098,242.619679 C186.424581,243.21284 219.88348,249.144452 232.460229,251.517097 C237.206172,252.347523 240.765629,253.059316 242.308061,253.296581 C271.021016,259.465457 292.37776,276.667132 299.615323,299.681786 C304.123969,312.849965 304.954509,327.085834 304.954509,344.762038 C306.496941,417.602233 306.852886,496.37404 306.022346,592.940684 C306.734238,674.915562 305.073158,840.170272 305.073158,841.949756 C305.073158,856.422889 304.361266,871.726448 299.733972,885.843685 C291.54722,909.332868 270.546422,926.178646 242.070763,932.22889 C241.358872,932.347523 240.765629,932.584787 240.053738,932.822052 C232.934823,934.720167 187.611067,942.193999 181.085395,942.78716 C171.593509,943.143057 164.118649,950.854152 164.118649,960.344731 L164.118649,999.849267 C164.118649,1009.57711 171.949455,1017.40684 181.678638,1017.40684 L563.845703,1017.40684 C573.574887,1017.40684 581.405693,1009.57711 581.405693,999.849267 L581.405693,960.344731 C581.405693,950.854152 573.812184,943.143057 564.438946,942.78716 C557.913275,942.193999 512.589518,934.720167 505.470604,932.822052 C504.758712,932.584787 504.046821,932.347523 503.216281,932.22889 C482.927374,928.195394 465.367385,917.993022 455.044959,903.875785 C451.010907,898.655967 448.163341,893.080251 445.79037,886.199581 C442.349561,875.878576 440.688481,852.982554 440.332535,841.356595 L440.213886,630.903001 C466.672519,630.784368 491.826017,631.140265 516.148976,637.427774 C566.455972,650.951849 613.796754,684.88067 652.950784,735.418004 C696.257515,790.937893 730.309656,853.101186 770.88747,910.519191 C789.277999,936.499651 810.990689,962.005583 836.144187,981.698535 C877.908486,1013.9665 918.130353,1018 959.894652,1018 C966.77627,1018 973.657887,1017.88137 980.539505,1017.76274 C988.014365,1017.6441 995.607874,1017.52547 1003.43868,1017.52547 C1013.16786,1017.52547 1021,1009.69574 1021,999.9679 L1021,960.463364 C1021.11732,950.616888 1013.28651,942.78716 1003.55733,942.78716 Z M658.492928,466.87 C650.927957,479.2252 641.471743,490.63 629.651475,501.5596 C599.391589,529.0024 563.576177,544.09 513.694647,550.5052 C513.694647,550.5052 513.694647,550.5052 513.694647,550.5052 C499.155718,552.406 484.380383,553.1188 468.186616,552.8812 C468.186616,552.8812 448.210363,553 441,553 L441,256 C441,256 529.770211,256.4752 567.004055,266.8108 C615.467153,279.9976 654.119429,309.8164 670.431399,346.4068 C686.625166,383.116 682.015261,429.2104 658.492928,466.87 Z M181.3,943.5 C181.4,943.5 181.5,943.5 181.6,943.5 C181.6,943.5 181.6,943.5 181.7,943.5 C181.6,943.5 181.4,943.5 181.3,943.5 Z M564.660063,943.5 C564.560063,943.5 564.260063,943.5 564.360063,943.5 C564.460063,943.5 564.560063,943.5 564.660063,943.5 Z" id="Shape" fill="#000000" fill-rule="nonzero"></path>
    </g>
</svg>